<svg width="34" height="35" viewBox="0 0 34 35" fill="none" xmlns="http://www.w3.org/2000/svg">
<path d="M11.0987 22.9629C13.1401 21.4765 15.2332 19.9514 15.0265 17.2372C14.8456 14.9366 13.4114 13.6959 11.8868 12.3775C11.2925 11.8606 10.6852 11.3436 10.1296 10.7361C7.67474 8.04777 7.10625 6.7036 6.73156 3.5629C6.53775 3.70507 6.34394 3.86017 6.16305 4.01526C6.55067 7.0138 7.22253 8.47429 9.66449 11.1626C10.2459 11.7959 10.8661 12.3388 11.4734 12.8558C12.9592 14.1353 14.2383 15.2468 14.3934 17.2889C14.5743 19.6542 12.7008 21.0242 10.711 22.4717C9.65157 23.2472 8.56625 24.0356 7.81687 24.9921C6.4473 26.7757 6.09845 28.5205 6.02093 30.4204C6.21473 30.5885 6.42146 30.7436 6.62819 30.8987C6.66695 28.9341 6.93828 27.1505 8.30785 25.3669C8.99263 24.4751 10.0004 23.7384 11.0728 22.9629H11.0987Z" fill="#231F20"/>
<path d="M10.6723 25.3669C11.3571 24.4751 12.3649 23.7384 13.4373 22.9629C15.4787 21.4765 17.5718 19.9514 17.3651 17.2372C17.1842 14.9366 15.75 13.6959 14.2254 12.3776C13.6311 11.8606 13.0238 11.3436 12.4682 10.7361C9.80662 7.82805 9.36733 6.49681 8.99263 2.74864C8.96679 2.55477 8.96679 2.3609 8.94095 2.1541C8.73422 2.2575 8.54042 2.37383 8.34661 2.49015C8.34661 2.59355 8.35953 2.69694 8.37245 2.80034C8.76006 6.6519 9.25104 8.12532 12.016 11.1497C12.5974 11.783 13.2176 12.3259 13.8249 12.8428C15.3107 14.1224 16.5898 15.2339 16.7449 17.276C16.9258 19.6412 15.0523 21.0113 13.0626 22.4588C12.0031 23.2343 10.9178 24.0227 10.1684 24.9791C8.41121 27.2539 8.33369 29.4899 8.35953 32.036C8.56626 32.1524 8.77298 32.2687 8.97971 32.385C8.95387 29.8001 8.95387 27.577 10.6594 25.354L10.6723 25.3669Z" fill="#231F20"/>
<path d="M6.43438 22.9629C8.47581 21.4765 10.5689 19.9514 10.3622 17.2372C10.1813 14.9366 8.74714 13.6959 7.22253 12.3775C6.62819 11.8606 6.02093 11.3436 5.46535 10.7361C4.26375 9.41779 3.52728 8.43552 3.02339 7.38861C2.88126 7.58249 2.75206 7.77635 2.62285 7.97022C3.13967 8.9525 3.88906 9.92186 5.00022 11.1497C5.58164 11.783 6.20181 12.3259 6.80907 12.8428C8.29492 14.1224 9.57405 15.2339 9.7291 17.276C9.90998 19.6412 8.03652 21.0113 6.04677 22.4588C4.98729 23.2343 3.90198 24.0227 3.15259 24.9791C2.8425 25.3798 2.59701 25.7805 2.37736 26.1682C2.50657 26.375 2.63577 26.5818 2.76498 26.7757C2.98462 26.2975 3.26888 25.8192 3.63065 25.354C4.31543 24.4622 5.32322 23.7254 6.39562 22.95L6.43438 22.9629Z" fill="#231F20"/>
<path d="M2.15772 12.8428C3.64357 14.1224 4.92269 15.2339 5.07773 17.276C5.25862 19.6412 3.38516 21.0113 1.39541 22.4588C1.21453 22.5881 1.03364 22.7302 0.839833 22.8595C0.904435 23.0663 0.981956 23.2602 1.05948 23.467C1.29205 23.2989 1.51169 23.1309 1.75718 22.9629C3.79861 21.4765 5.89172 19.9514 5.685 17.2372C5.50411 14.9366 4.06994 13.6959 2.54533 12.3775C2.05435 11.951 1.53753 11.5116 1.05948 11.0205C0.981956 11.2272 0.891512 11.447 0.82691 11.6667C1.25328 12.0932 1.7055 12.4809 2.1448 12.8558L2.15772 12.8428Z" fill="#231F20"/>
<path d="M11.3312 32.4755C11.3054 29.8647 11.2795 27.6029 13.0109 25.3669C13.6957 24.4751 14.7035 23.7384 15.7759 22.9629C17.8173 21.4765 19.9104 19.9514 19.7037 17.2372C19.5228 14.9366 18.0886 13.6959 16.564 12.3775C15.9697 11.8606 15.3624 11.3436 14.8068 10.7361C12.1452 7.82805 11.7059 6.49681 11.3312 2.74864C11.2795 2.21873 11.2408 1.68881 11.202 1.1589C10.9953 1.23645 10.8015 1.314 10.5948 1.39155C10.6335 1.86976 10.6723 2.34798 10.711 2.81327C11.0987 6.66483 11.5896 8.13825 14.3546 11.1626C14.936 11.7959 15.5562 12.3388 16.1635 12.8558C17.6493 14.1353 18.9284 15.2468 19.0835 17.2889C19.2644 19.6542 17.3909 21.0242 15.4012 22.4717C14.3417 23.2472 13.2564 24.0356 12.507 24.9921C10.6464 27.3961 10.6723 29.7613 10.6981 32.4884C10.6981 32.721 10.6981 32.9537 10.6981 33.1993C10.9049 33.2768 11.1116 33.3544 11.3183 33.4319C11.3183 33.1088 11.3183 32.7986 11.3183 32.4884L11.3312 32.4755Z" fill="#231F20"/>
<path d="M32.1202 22.9629C32.5983 22.6139 33.0763 22.265 33.5415 21.8901C33.6319 21.5412 33.7223 21.2051 33.7999 20.8562C33.1926 21.4119 32.482 21.9418 31.7584 22.4717C30.699 23.2472 29.6136 24.0356 28.8643 24.9921C27.3138 27.0083 27.0812 28.9858 27.0554 31.1701C27.275 31.015 27.4818 30.8599 27.6885 30.6919C27.7402 28.8049 28.0373 27.0859 29.3552 25.3669C30.04 24.4751 31.0478 23.7384 32.1202 22.9629Z" fill="#231F20"/>
<path d="M31.1899 24.9791C30.1692 26.3104 29.717 27.6158 29.5232 28.9858C29.8075 28.6756 30.0917 28.3654 30.3501 28.0423C30.5956 27.1376 30.9961 26.2458 31.6809 25.3669C31.9522 25.0179 32.2623 24.6948 32.6112 24.3846C32.7921 23.9839 32.96 23.5833 33.1151 23.1826C32.3915 23.7384 31.7068 24.32 31.1899 24.9921V24.9791Z" fill="#231F20"/>
<path d="M27.0166 25.3669C27.7014 24.4751 28.7092 23.7384 29.7816 22.9629C31.823 21.4765 33.9162 19.9514 33.7094 17.2372C33.5285 14.9366 32.0944 13.6959 30.5698 12.3775C29.9754 11.8606 29.3682 11.3436 28.8126 10.7361C26.151 7.82805 25.7117 6.49681 25.337 2.74864C25.3241 2.58062 25.3111 2.42553 25.2982 2.2575C25.0786 2.14118 24.8718 2.02486 24.6522 1.92146C24.678 2.21873 24.7039 2.516 24.7297 2.81327C25.1173 6.66483 25.6083 8.13825 28.3733 11.1626C28.9547 11.7959 29.5749 12.3388 30.1822 12.8558C31.668 14.1353 32.9471 15.2468 33.1022 17.2889C33.283 19.6542 31.4096 21.0242 29.4198 22.4717C28.3604 23.2472 27.275 24.0356 26.5257 24.9921C24.6651 27.3961 24.691 29.7613 24.7168 32.4884V32.5789C24.9235 32.4755 25.1303 32.3721 25.337 32.2558C25.3111 29.7354 25.337 27.5382 27.0166 25.3669Z" fill="#231F20"/>
<path d="M20.4401 22.9629C22.4816 21.4765 24.5747 19.9514 24.368 17.2372C24.1871 14.9366 22.7529 13.6959 21.2283 12.3775C20.6339 11.8606 20.0267 11.3436 19.4711 10.7361C16.8095 7.82805 16.3702 6.49681 15.9955 2.74864C15.9051 1.89561 15.8534 1.04258 15.8146 0.176624C15.6079 0.189549 15.4012 0.202475 15.1944 0.228324C15.2332 1.09428 15.2978 1.96024 15.3753 2.81327C15.7629 6.66483 16.2539 8.13825 19.0189 11.1626C19.6003 11.7959 20.2205 12.3388 20.8278 12.8558C22.3136 14.1353 23.5927 15.2468 23.7478 17.2889C23.9287 19.6542 22.0552 21.0242 20.0654 22.4717C19.006 23.2472 17.9206 24.0356 17.1713 24.9921C15.3107 27.3961 15.3366 29.7613 15.3624 32.4884C15.3624 32.8115 15.3624 33.1346 15.3624 33.4707V34.3237C15.5691 34.3496 15.7759 34.3625 15.9826 34.3754V33.4836C15.9826 33.1476 15.9826 32.8115 15.9826 32.4884C15.9567 29.8776 15.9309 27.6158 17.6622 25.3798C18.347 24.488 19.3548 23.7513 20.4272 22.9758L20.4401 22.9629Z" fill="#231F20"/>
<path d="M8.77298 22.9629C10.8144 21.4765 12.9075 19.9514 12.7008 17.2372C12.5199 14.9366 11.0857 13.6959 9.56113 12.3775C8.96679 11.8606 8.35953 11.3436 7.80395 10.7361C5.8788 8.62938 5.1165 7.34984 4.70304 5.37236C4.53508 5.5533 4.35419 5.73425 4.19915 5.92812C4.66428 7.77635 5.49119 9.1076 7.35174 11.1626C7.93316 11.7959 8.55333 12.3388 9.16059 12.8558C10.6464 14.1353 11.9256 15.2468 12.0806 17.2889C12.2615 19.6542 10.388 21.0242 8.39829 22.4717C7.33881 23.2472 6.2535 24.0356 5.50411 24.9921C4.65136 26.1036 4.19915 27.2022 3.95366 28.3396C4.12162 28.5464 4.30251 28.7402 4.4834 28.9341C4.6772 27.7063 5.10358 26.543 5.99509 25.3798C6.67987 24.488 7.68767 23.7513 8.76006 22.9758L8.77298 22.9629Z" fill="#231F20"/>
<path d="M23.0113 33.3285C23.0113 33.0442 23.0113 32.7598 23.0113 32.4755C22.9855 29.8647 22.9596 27.6029 24.691 25.3669C25.3757 24.4751 26.3835 23.7384 27.4559 22.9629C29.4974 21.4765 31.5905 19.9514 31.3838 17.2372C31.2029 14.9366 29.7687 13.6959 28.2441 12.3775C27.6497 11.8606 27.0425 11.3436 26.4869 10.7361C23.8253 7.82805 23.386 6.49681 23.0113 2.74864C22.9596 2.21873 22.9209 1.68881 22.8821 1.1589C22.6754 1.08135 22.4686 1.01673 22.249 0.939182C22.2878 1.57249 22.3394 2.19288 22.3911 2.81327C22.7787 6.66483 23.2697 8.13825 26.0347 11.1626C26.6161 11.7959 27.2363 12.3388 27.8435 12.8558C29.3294 14.1353 30.6085 15.2468 30.7636 17.2889C30.9445 19.6542 29.071 21.0242 27.0812 22.4718C26.0218 23.2472 24.9364 24.0356 24.1871 24.9921C22.3265 27.3961 22.3524 29.7613 22.3782 32.4884C22.3782 32.8115 22.3782 33.1346 22.3782 33.4707V33.5482C22.5849 33.4836 22.7917 33.4061 22.9984 33.3285H23.0113Z" fill="#231F20"/>
<path d="M20.6727 34.0006V33.4578C20.6727 33.1217 20.6727 32.7857 20.6727 32.4626C20.6469 29.8518 20.621 27.5899 22.3524 25.354C23.0371 24.4622 24.0449 23.7254 25.1173 22.95C27.1588 21.4636 29.2519 19.9385 29.0451 17.2243C28.8643 14.9237 27.4301 13.6829 25.9055 12.3646C25.3111 11.8476 24.7039 11.3307 24.1483 10.7232C21.4867 7.81513 21.0474 6.48388 20.6727 2.73572C20.5952 1.98608 20.5435 1.23645 20.5047 0.473893C20.298 0.435119 20.0913 0.396345 19.8716 0.357571C19.9104 1.17183 19.975 1.98608 20.0525 2.80034C20.4401 6.6519 20.9311 8.12532 23.6961 11.1497C24.2775 11.783 24.8977 12.3259 25.5049 12.8428C26.9908 14.1224 28.2699 15.2339 28.425 17.276C28.6059 19.6412 26.7324 21.0113 24.7426 22.4588C23.6832 23.2343 22.5978 24.0227 21.8485 24.9791C19.9879 27.3831 20.0138 29.7484 20.0396 32.4755C20.0396 32.7986 20.0396 33.1217 20.0396 33.4578V34.1169C20.2463 34.0781 20.4531 34.0394 20.6598 34.0006H20.6727Z" fill="#231F20"/>
<path d="M32.5078 12.8428C32.9988 13.2694 33.4639 13.67 33.8774 14.0965C33.8128 13.7346 33.7353 13.3728 33.6448 13.0109C33.4123 12.7911 33.1668 12.5843 32.9213 12.3776C32.3269 11.8606 31.7197 11.3436 31.1641 10.7361C28.8126 8.16409 28.1924 6.81993 27.8177 3.93772C27.5981 3.75677 27.3655 3.57582 27.1329 3.4078C27.5205 6.807 28.102 8.29335 30.7119 11.1497C31.2933 11.783 31.9135 12.3259 32.5207 12.8428H32.5078Z" fill="#231F20"/>
<path d="M33.0376 11.1497H33.0505C32.7662 10.4388 32.4432 9.71506 32.0685 9.04298C31.6551 8.48721 31.3321 7.97023 31.0737 7.45324C30.699 6.92332 30.2984 6.41926 29.8721 5.92812C30.3372 7.77636 31.1641 9.1076 33.0246 11.1626L33.0376 11.1497Z" fill="#231F20"/>
<path d="M13.6698 34.0652V33.4707C13.6698 33.1346 13.6698 32.7986 13.6698 32.4755C13.644 29.8647 13.6181 27.6029 15.3495 25.3669C16.0343 24.4751 17.0421 23.7384 18.1145 22.9629C20.1559 21.4765 22.249 19.9514 22.0423 17.2372C21.8614 14.9366 20.4272 13.6959 18.9026 12.3775C18.3083 11.8606 17.701 11.3436 17.1454 10.7361C14.4838 7.82805 14.0445 6.49681 13.6698 2.74864C13.5923 2.01194 13.5406 1.24938 13.5019 0.499743C13.2951 0.538517 13.0884 0.590216 12.8946 0.641915C12.9334 1.3657 12.985 2.08948 13.0626 2.81327C13.4502 6.66483 13.9412 8.13825 16.7061 11.1626C17.2875 11.7959 17.9077 12.3388 18.515 12.8558C20.0008 14.1353 21.28 15.2468 21.435 17.2889C21.6159 19.6542 19.7424 21.0242 17.7527 22.4717C16.6932 23.2472 15.6079 24.0356 14.8585 24.9921C12.998 27.3961 13.0238 29.7613 13.0496 32.4884C13.0496 32.8115 13.0496 33.1346 13.0496 33.4707V33.936C13.2564 33.9877 13.4631 34.0394 13.6698 34.0781V34.0652Z" fill="#231F20"/>
<path d="M3.35932 17.2372C3.19135 15.0917 1.93807 13.8639 0.52974 12.649C0.465138 12.8687 0.41346 13.1013 0.361778 13.3211C1.60214 14.4197 2.60993 15.4924 2.73914 17.2889C2.88126 19.0984 1.80886 20.3262 0.413456 21.4507C0.465138 21.6704 0.529744 21.8901 0.594347 22.0969C2.18356 20.8562 3.52729 19.4344 3.35932 17.2502V17.2372Z" fill="#231F20"/>
<path d="M4.09578 22.9629C6.13721 21.4765 8.23033 19.9514 8.0236 17.2372C7.84271 14.9366 6.40854 13.6959 4.88393 12.3775C4.28959 11.8606 3.68233 11.3436 3.12675 10.7361C2.63577 10.2062 2.22232 9.71506 1.87347 9.26269C1.7701 9.45656 1.66674 9.66336 1.56338 9.87016C1.88639 10.2708 2.24816 10.6973 2.66162 11.1497C3.24303 11.783 3.86322 12.3259 4.47048 12.8428C5.95633 14.1224 7.23545 15.2339 7.3905 17.276C7.57138 19.6412 5.69792 21.0113 3.70817 22.4588C2.90711 23.0404 2.08019 23.6479 1.40833 24.32C1.49877 24.5268 1.58922 24.7206 1.69258 24.9145C2.35152 24.2166 3.19135 23.5962 4.06994 22.95L4.09578 22.9629Z" fill="#231F20"/>
<path d="M18.3341 34.3496V33.4707C18.3341 33.1346 18.3341 32.7986 18.3341 32.4755C18.3083 29.8647 18.2824 27.6029 20.0138 25.3669C20.6985 24.4751 21.7063 23.7384 22.7787 22.9629C24.8202 21.4765 26.9133 19.9514 26.7065 17.2372C26.5257 14.9366 25.0915 13.6959 23.5669 12.3775C22.9725 11.8606 22.3653 11.3436 21.8097 10.7361C19.1481 7.82805 18.7088 6.49681 18.3341 2.74864C18.2437 1.89561 18.192 1.04258 18.1532 0.176624C17.9465 0.163699 17.7398 0.150774 17.533 0.150774C17.5718 1.04258 17.6364 1.93439 17.7268 2.81327C18.1145 6.66483 18.6054 8.13825 21.3704 11.1626C21.9518 11.7959 22.572 12.3388 23.1793 12.8558C24.6651 14.1353 25.9442 15.2468 26.0993 17.2889C26.2802 19.6542 24.4067 21.0242 22.417 22.4718C21.3575 23.2472 20.2722 24.0356 19.5228 24.9921C17.6622 27.3961 17.6881 29.7613 17.7139 32.4884C17.7139 32.8115 17.7139 33.1346 17.7139 33.4707V34.3883C17.9207 34.3883 18.1274 34.3625 18.3341 34.3496Z" fill="#231F20"/>
<path d="M0.167971 20.2228C0.762311 19.3957 1.12408 18.4263 1.03364 17.2372C0.956115 16.1903 0.607265 15.3502 0.116288 14.6394C0.0646062 14.9754 0.0258447 15.3115 3.8147e-06 15.6604C0.232572 16.1386 0.374699 16.6686 0.426381 17.2889C0.478062 18.0386 0.335939 18.6848 0.0387685 19.2664C0.0775298 19.5895 0.129207 19.9127 0.180889 20.2228H0.167971Z" fill="#231F20"/>
</svg>
