<svg width="156" height="44" viewBox="0 0 156 44" fill="none" xmlns="http://www.w3.org/2000/svg">
<path d="M40.4539 29.1797V7.31107H48.6454C50.3251 7.31107 51.7334 7.62126 52.8704 8.25457C54.0074 8.87495 54.8731 9.74091 55.4674 10.8266C56.0488 11.9252 56.346 13.153 56.346 14.5489C56.346 15.9448 56.0488 17.1985 55.4545 18.2841C54.8601 19.3698 53.9945 20.2228 52.8446 20.8562C51.6946 21.4765 50.2734 21.7867 48.5808 21.7867H43.1542V18.5297H48.0511C49.033 18.5297 49.8341 18.3617 50.4672 18.0127C51.0874 17.6767 51.5525 17.1985 51.8626 16.6039C52.1598 16.0094 52.3148 15.3244 52.3148 14.5489C52.3148 13.7734 52.1598 13.0884 51.8626 12.4939C51.5654 11.8993 51.1003 11.447 50.4672 11.1109C49.8341 10.7749 49.033 10.6198 48.0382 10.6198H44.4075V29.1797H40.4539Z" fill="black"/>
<path d="M62.2765 7.31107V29.1797H58.4133V7.31107H62.2765Z" fill="black"/>
<path d="M69.822 29.5157C68.7884 29.5157 67.8452 29.3348 67.0183 28.96C66.1913 28.5851 65.5324 28.0294 65.0544 27.3056C64.5763 26.5689 64.3308 25.6642 64.3308 24.5914C64.3308 23.6608 64.4988 22.8983 64.8476 22.2908C65.1965 21.6833 65.6487 21.2051 66.243 20.8432C66.8374 20.4813 67.4963 20.2099 68.2457 20.0161C68.9951 19.8222 69.7574 19.6929 70.5585 19.6025C71.5146 19.4991 72.3027 19.4086 72.8971 19.331C73.4914 19.2535 73.9307 19.1243 74.202 18.9433C74.4734 18.7753 74.6155 18.4909 74.6155 18.129V18.0644C74.6155 17.2631 74.3829 16.6427 73.9048 16.1903C73.4268 15.7509 72.742 15.5312 71.8505 15.5312C70.9073 15.5312 70.1579 15.738 69.6023 16.1516C69.0468 16.5652 68.685 17.0563 68.4912 17.6121L64.8864 17.0951C65.1706 16.0999 65.6358 15.2598 66.2947 14.5877C66.9537 13.9156 67.7547 13.4115 68.6979 13.0755C69.6411 12.7394 70.6877 12.5714 71.8376 12.5714C72.6257 12.5714 73.4139 12.6619 74.202 12.8558C74.9902 13.0367 75.7008 13.3469 76.3468 13.7734C76.9928 14.1999 77.5096 14.7686 77.9102 15.4924C78.3107 16.2162 78.5045 17.1209 78.5045 18.2195V29.1926H74.7964V26.9437H74.6672C74.4346 27.3961 74.0987 27.8226 73.6852 28.2232C73.2718 28.6239 72.7291 28.9341 72.096 29.1797C71.4629 29.4252 70.7135 29.5416 69.8608 29.5416L69.822 29.5157ZM70.8298 26.6723C71.605 26.6723 72.2769 26.5172 72.8454 26.207C73.4139 25.8968 73.8532 25.4832 74.1633 24.9791C74.4733 24.4622 74.6284 23.9064 74.6284 23.2989V21.3602C74.5121 21.4636 74.3054 21.5541 74.0211 21.6446C73.7369 21.735 73.4139 21.7997 73.0521 21.8643C72.6903 21.9289 72.3415 21.9806 71.9926 22.0323C71.6438 22.084 71.3466 22.1228 71.0882 22.1616C70.5068 22.2391 69.99 22.3684 69.5377 22.5493C69.0855 22.7302 68.7238 22.9758 68.4653 23.286C68.2069 23.6091 68.0648 24.0098 68.0648 24.5139C68.0648 25.2247 68.3232 25.7676 68.84 26.1294C69.3569 26.4913 70.0158 26.6723 70.8298 26.6723Z" fill="black"/>
<path d="M83.0785 10.4518C82.4712 10.4518 81.9415 10.245 81.5022 9.83138C81.0629 9.41779 80.8433 8.92665 80.8433 8.34504C80.8433 7.76343 81.0629 7.27229 81.5022 6.87163C81.9415 6.45803 82.4712 6.26416 83.0785 6.26416C83.6858 6.26416 84.2155 6.47096 84.6548 6.88455C85.0941 7.29814 85.3137 7.78928 85.3137 8.37089C85.3137 8.9525 85.0941 9.44364 84.6548 9.84431C84.2155 10.2579 83.6858 10.4518 83.0656 10.4518H83.0785ZM81.1533 29.1797V12.7782H85.0166V29.1797H81.1533Z" fill="black"/>
<path d="M91.5412 19.5766V29.1797H87.678V12.7782H91.3732V15.57H91.567C91.9417 14.6523 92.549 13.9285 93.3759 13.3857C94.2028 12.8428 95.2364 12.5714 96.4509 12.5714C97.5879 12.5714 98.5699 12.817 99.4097 13.2952C100.25 13.7734 100.909 14.4843 101.374 15.4019C101.839 16.3196 102.071 17.4311 102.058 18.7494V29.1926H98.1952V19.344C98.1952 18.2454 97.911 17.3923 97.3425 16.772C96.774 16.1516 95.9987 15.8414 95.0039 15.8414C94.332 15.8414 93.7247 15.9835 93.2079 16.2808C92.6911 16.5781 92.2776 17.0046 91.9805 17.5604C91.6833 18.1161 91.5412 18.7882 91.5412 19.5766Z" fill="black"/>
<path d="M112.938 12.7782V15.7638H103.519V12.7782H112.938ZM105.844 8.8491H109.707V24.2424C109.707 24.7594 109.785 25.1601 109.953 25.4315C110.108 25.7029 110.328 25.8968 110.586 25.9873C110.844 26.0907 111.142 26.1424 111.465 26.1424C111.71 26.1424 111.93 26.1294 112.136 26.0907C112.343 26.0519 112.498 26.026 112.602 26.0002L113.248 29.0246C113.041 29.1021 112.744 29.1797 112.369 29.2572C111.994 29.3477 111.529 29.3865 110.974 29.4123C110.005 29.4382 109.139 29.296 108.364 28.9729C107.589 28.6498 106.968 28.1457 106.529 27.4607C106.09 26.7757 105.857 25.9226 105.857 24.9016V8.86203L105.844 8.8491Z" fill="black"/>
<path d="M121.736 29.5028C120.095 29.5028 118.674 29.1538 117.486 28.4688C116.297 27.7838 115.379 26.8015 114.733 25.5478C114.087 24.2812 113.777 22.7949 113.777 21.0759C113.777 19.3569 114.1 17.9093 114.746 16.6298C115.392 15.3502 116.297 14.355 117.447 13.6442C118.61 12.9333 119.966 12.5714 121.53 12.5714C122.537 12.5714 123.494 12.7394 124.398 13.0626C125.302 13.3857 126.091 13.8897 126.788 14.5618C127.486 15.2339 128.029 16.0999 128.429 17.1468C128.83 18.1937 129.023 19.4344 129.023 20.8691V22.0582H115.586V19.4474H125.315C125.315 18.7107 125.147 18.0515 124.837 17.4699C124.527 16.8883 124.088 16.4359 123.532 16.0999C122.977 15.7638 122.331 15.5958 121.581 15.5958C120.793 15.5958 120.095 15.7897 119.501 16.1645C118.907 16.5393 118.442 17.0434 118.106 17.6638C117.77 18.2841 117.602 18.9562 117.602 19.6929V21.9677C117.602 22.9241 117.77 23.7384 118.132 24.4234C118.48 25.1084 118.971 25.6254 119.592 25.9873C120.212 26.3492 120.948 26.5301 121.788 26.5301C122.357 26.5301 122.86 26.4526 123.313 26.2845C123.765 26.1294 124.165 25.8839 124.501 25.5737C124.837 25.2635 125.083 24.8757 125.264 24.4105L128.868 24.8111C128.636 25.7676 128.209 26.5947 127.576 27.3056C126.943 28.0165 126.129 28.5593 125.134 28.947C124.14 29.3348 123.015 29.5286 121.736 29.5286V29.5028Z" fill="black"/>
<path d="M133.442 12.7782L136.75 18.827L140.109 12.7782H144.192L139.256 20.9725L144.283 29.1667H140.213L136.75 23.2602L133.313 29.1667H129.217L134.217 20.9725L129.346 12.7782H133.442Z" fill="black"/>
<path d="M155.071 12.7782V15.7638H145.652V12.7782H155.071ZM147.978 8.8491H151.841V24.2424C151.841 24.7594 151.919 25.1601 152.087 25.4315C152.242 25.7029 152.461 25.8968 152.72 25.9873C152.978 26.0907 153.275 26.1424 153.598 26.1424C153.844 26.1424 154.064 26.1294 154.27 26.0907C154.477 26.0519 154.632 26.026 154.735 26.0002L155.381 29.0246C155.175 29.1021 154.878 29.1797 154.503 29.2572C154.128 29.3477 153.663 29.3865 153.107 29.4123C152.138 29.4382 151.273 29.296 150.498 28.9729C149.722 28.6498 149.115 28.1457 148.663 27.4607C148.211 26.7757 147.991 25.9226 147.991 24.9016V8.86203L147.978 8.8491Z" fill="black"/>
<path d="M114.411 41.0963C113.907 40.7861 113.519 40.3466 113.261 39.765C113.002 39.1963 112.873 38.5372 112.873 37.7746C112.873 37.0637 113.028 36.4175 113.338 35.8617C113.648 35.306 114.062 34.8665 114.591 34.5564C115.121 34.2462 115.716 34.0911 116.362 34.0911C116.697 34.0911 117.021 34.1169 117.331 34.1686C117.641 34.2203 117.886 34.272 118.08 34.3108C118.274 34.3496 118.39 34.3883 118.429 34.4013L118.351 36.0039H117.847L117.628 34.8665C117.524 34.7761 117.356 34.7114 117.098 34.6468C116.84 34.5822 116.53 34.5564 116.168 34.5564C115.716 34.5564 115.315 34.6727 114.953 34.9182C114.591 35.1638 114.307 35.5257 114.1 35.991C113.894 36.4563 113.79 37.025 113.79 37.6841C113.79 38.3045 113.881 38.8603 114.062 39.3773C114.243 39.8943 114.514 40.3079 114.876 40.618C115.237 40.9282 115.69 41.0833 116.232 41.0833C116.607 41.0833 116.891 41.0575 117.111 40.9929C117.318 40.9282 117.499 40.8378 117.641 40.7214L118.028 39.8038L118.506 39.8684L118.261 41.1867C118.106 41.1867 117.912 41.2384 117.692 41.316C117.46 41.3935 117.227 41.4581 117.021 41.4969C116.801 41.5357 116.542 41.5615 116.219 41.5615C115.522 41.5615 114.914 41.4065 114.411 41.0963Z" fill="black"/>
<path d="M120.328 38.6535C120.961 38.3691 121.736 38.214 122.679 38.2011V37.8909C122.679 37.5549 122.641 37.2964 122.576 37.1025C122.512 36.9086 122.382 36.7665 122.214 36.676C122.046 36.5855 121.801 36.5468 121.504 36.5468C121.168 36.5468 120.871 36.5985 120.599 36.7019C120.328 36.8053 120.07 36.9216 119.811 37.0767L119.591 36.6502C119.669 36.5855 119.811 36.4951 120.044 36.3787C120.276 36.2624 120.535 36.159 120.832 36.0685C121.129 35.9781 121.413 35.9264 121.685 35.9264C122.124 35.9264 122.486 35.991 122.744 36.1073C123.002 36.2366 123.183 36.4304 123.3 36.7019C123.416 36.9733 123.468 37.3481 123.468 37.8134V41.0575H124.075V41.4194C123.713 41.5228 123.416 41.5615 123.158 41.5615C123.002 41.5615 122.899 41.5357 122.835 41.484C122.77 41.4323 122.744 41.316 122.744 41.148V40.7861C122.511 40.9929 122.253 41.1867 121.969 41.3418C121.685 41.4969 121.374 41.5874 121.026 41.5874C120.561 41.5874 120.16 41.4581 119.85 41.1997C119.54 40.9412 119.385 40.5534 119.385 40.0494C119.385 39.416 119.695 38.9508 120.328 38.6664V38.6535ZM121.982 40.8119C122.24 40.6956 122.473 40.5534 122.679 40.3854V38.6535C121.891 38.6535 121.284 38.7827 120.884 39.0025C120.47 39.2351 120.276 39.5324 120.276 39.9201C120.276 40.3078 120.367 40.5663 120.561 40.7344C120.754 40.9024 121.013 40.9799 121.336 40.9799C121.517 40.9799 121.736 40.9153 121.995 40.799L121.982 40.8119Z" fill="black"/>
<path d="M129.683 40.0752C129.45 40.5405 129.127 40.9024 128.701 41.1738C128.274 41.4452 127.796 41.5745 127.253 41.5745C127.073 41.5745 126.879 41.5615 126.672 41.5357C126.465 41.5098 126.297 41.4711 126.168 41.4194L126.194 42.2595V43.3193L127.279 43.4227V43.8492H124.656V43.4227L125.406 43.3193V36.676L124.644 36.508V36.0685L125.897 35.9134H125.923L126.104 36.0685V36.6631C126.31 36.4434 126.569 36.2624 126.866 36.1073C127.163 35.9522 127.499 35.8747 127.874 35.8747C128.248 35.8747 128.61 35.9651 128.933 36.159C129.256 36.3529 129.527 36.6372 129.721 37.0379C129.915 37.4386 130.018 37.9426 130.018 38.5372C130.018 39.1058 129.902 39.6099 129.67 40.0752H129.683ZM126.763 36.6502C126.517 36.7665 126.336 36.8957 126.194 37.0379V40.7731C126.246 40.8636 126.375 40.9412 126.595 41.0058C126.801 41.0704 127.047 41.1092 127.292 41.1092C127.861 41.1092 128.313 40.9024 128.649 40.4888C128.998 40.0752 129.166 39.4548 129.166 38.6535C129.166 37.9297 129.011 37.3869 128.714 37.025C128.403 36.6631 128.016 36.4821 127.551 36.4821C127.266 36.4821 127.008 36.5468 126.763 36.6631V36.6502Z" fill="black"/>
<path d="M131.75 36.6631L130.988 36.4951V36.0556L132.331 35.9005H132.344L132.538 36.0556V40.967L133.391 41.0316V41.4581H130.884V41.0316L131.75 40.9541V36.6502V36.6631ZM131.53 34.4271C131.53 34.2332 131.582 34.0781 131.698 33.9618C131.815 33.8455 131.957 33.7809 132.15 33.7809C132.344 33.7809 132.486 33.8326 132.577 33.9489C132.667 34.0523 132.706 34.1945 132.706 34.3496C132.706 34.5564 132.654 34.7114 132.538 34.8278C132.435 34.9441 132.28 34.9958 132.073 34.9958C131.724 34.9958 131.543 34.8148 131.543 34.44L131.53 34.4271Z" fill="black"/>
<path d="M135.006 41.3289C134.825 41.1738 134.747 40.8765 134.747 40.4759V36.5985H133.998V36.2107C134.321 36.1332 134.515 36.0815 134.567 36.0556C134.67 36.0039 134.735 35.9005 134.786 35.7454C134.825 35.642 134.877 35.474 134.941 35.2155C135.006 34.957 135.058 34.7632 135.083 34.621H135.536V36.0169H137.267V36.5985H135.536V39.7779C135.536 40.1528 135.549 40.4242 135.574 40.5793C135.6 40.7344 135.652 40.8378 135.729 40.8765C135.807 40.9282 135.949 40.9412 136.143 40.9412C136.337 40.9412 136.543 40.9153 136.776 40.8636C137.009 40.8119 137.189 40.7602 137.306 40.6956L137.435 41.0704C137.28 41.1867 137.034 41.3031 136.686 41.4065C136.337 41.5099 136.039 41.5745 135.781 41.5745C135.432 41.5745 135.174 41.4969 134.993 41.3289H135.006Z" fill="black"/>
<path d="M139.076 38.6535C139.709 38.3691 140.484 38.214 141.427 38.2011V37.8909C141.427 37.5549 141.388 37.2964 141.324 37.1025C141.259 36.9086 141.13 36.7665 140.962 36.676C140.794 36.5855 140.548 36.5468 140.251 36.5468C139.915 36.5468 139.618 36.5985 139.347 36.7019C139.076 36.8053 138.817 36.9216 138.559 37.0767L138.339 36.6502C138.417 36.5855 138.559 36.4951 138.791 36.3787C139.024 36.2624 139.282 36.159 139.579 36.0685C139.877 35.9781 140.161 35.9264 140.432 35.9264C140.871 35.9264 141.233 35.991 141.492 36.1073C141.75 36.2366 141.931 36.4304 142.047 36.7019C142.163 36.9733 142.215 37.3481 142.215 37.8134V41.0575H142.822V41.4194C142.461 41.5228 142.163 41.5615 141.905 41.5615C141.75 41.5615 141.647 41.5357 141.582 41.484C141.517 41.4323 141.492 41.316 141.492 41.148V40.7861C141.259 40.9929 141.001 41.1867 140.716 41.3418C140.432 41.4969 140.122 41.5874 139.773 41.5874C139.308 41.5874 138.908 41.4581 138.597 41.1997C138.287 40.9412 138.132 40.5534 138.132 40.0494C138.132 39.416 138.442 38.9508 139.076 38.6664V38.6535ZM140.729 40.8119C140.988 40.6956 141.22 40.5534 141.427 40.3854V38.6535C140.639 38.6535 140.032 38.7827 139.631 39.0025C139.231 39.2222 139.024 39.5324 139.024 39.9201C139.024 40.3078 139.114 40.5663 139.308 40.7344C139.502 40.9024 139.76 40.9799 140.083 40.9799C140.264 40.9799 140.484 40.9153 140.742 40.799L140.729 40.8119Z" fill="black"/>
<path d="M144.347 34.0394L143.507 33.9489V33.587L144.941 33.419L145.122 33.5482V40.967L146.04 41.0316V41.4582H143.456V41.0316L144.321 40.9541V34.0394H144.347Z" fill="black"/>
<path d="M11.0987 22.9629C13.1402 21.4765 15.2333 19.9514 15.0265 17.2372C14.8457 14.9366 13.4115 13.6959 11.8869 12.3775C11.2925 11.8606 10.6853 11.3436 10.1297 10.7361C7.67481 8.04777 7.10632 6.7036 6.73162 3.5629C6.53782 3.70507 6.34401 3.86017 6.16312 4.01526C6.55073 7.0138 7.2226 8.47429 9.66456 11.1626C10.246 11.7959 10.8662 12.3388 11.4734 12.8558C12.9593 14.1353 14.2384 15.2468 14.3934 17.2889C14.5743 19.6542 12.7009 21.0242 10.7111 22.4717C9.65164 23.2472 8.56632 24.0356 7.81694 24.9921C6.44737 26.7757 6.09852 28.5205 6.021 30.4204C6.2148 30.5885 6.42153 30.7436 6.62826 30.8987C6.66702 28.9341 6.93835 27.1505 8.30791 25.3669C8.9927 24.4751 10.0005 23.7384 11.0729 22.9629H11.0987Z" fill="#231F20"/>
<path d="M10.6724 25.3669C11.3571 24.4751 12.3649 23.7384 13.4373 22.9629C15.4788 21.4765 17.5719 19.9514 17.3651 17.2372C17.1843 14.9366 15.7501 13.6959 14.2255 12.3776C13.6311 11.8606 13.0239 11.3436 12.4683 10.7361C9.80669 7.82805 9.36739 6.49681 8.9927 2.74864C8.96686 2.55477 8.96686 2.3609 8.94102 2.1541C8.73429 2.2575 8.54049 2.37383 8.34668 2.49015C8.34668 2.59355 8.3596 2.69694 8.37252 2.80034C8.76013 6.6519 9.25111 8.12532 12.0161 11.1497C12.5975 11.783 13.2177 12.3259 13.8249 12.8428C15.3108 14.1224 16.5899 15.2339 16.745 17.276C16.9258 19.6412 15.0524 21.0113 13.0626 22.4588C12.0032 23.2343 10.9178 24.0227 10.1685 24.9791C8.41128 27.2539 8.33376 29.4899 8.3596 32.036C8.56632 32.1524 8.77305 32.2687 8.97978 32.385C8.95394 29.8001 8.95394 27.577 10.6594 25.354L10.6724 25.3669Z" fill="#231F20"/>
<path d="M6.43446 22.9629C8.47589 21.4765 10.569 19.9514 10.3623 17.2372C10.1814 14.9366 8.74722 13.6959 7.22261 12.3775C6.62827 11.8606 6.021 11.3436 5.46543 10.7361C4.26382 9.41779 3.52736 8.43552 3.02346 7.38861C2.88134 7.58249 2.75214 7.77635 2.62293 7.97022C3.13975 8.9525 3.88914 9.92186 5.00029 11.1497C5.58171 11.783 6.20189 12.3259 6.80915 12.8428C8.295 14.1224 9.57413 15.2339 9.72917 17.276C9.91006 19.6412 8.03659 21.0113 6.04685 22.4588C4.98737 23.2343 3.90206 24.0227 3.15267 24.9791C2.84258 25.3798 2.59709 25.7805 2.37744 26.1682C2.50665 26.375 2.63585 26.5818 2.76505 26.7757C2.9847 26.2975 3.26895 25.8192 3.63073 25.354C4.31551 24.4622 5.3233 23.7254 6.3957 22.95L6.43446 22.9629Z" fill="#231F20"/>
<path d="M2.15771 12.8428C3.64356 14.1224 4.92268 15.2339 5.07773 17.276C5.25862 19.6412 3.38515 21.0113 1.39541 22.4588C1.21452 22.5881 1.03363 22.7302 0.839827 22.8595C0.90443 23.0663 0.98195 23.2602 1.05947 23.467C1.29204 23.2989 1.51169 23.1309 1.75718 22.9629C3.79861 21.4765 5.89172 19.9514 5.68499 17.2372C5.50411 14.9366 4.06994 13.6959 2.54532 12.3775C2.05435 11.951 1.53753 11.5116 1.05947 11.0205C0.98195 11.2272 0.891506 11.447 0.826904 11.6667C1.25328 12.0932 1.70549 12.4809 2.14479 12.8558L2.15771 12.8428Z" fill="#231F20"/>
<path d="M11.3312 32.4755C11.3054 29.8647 11.2795 27.6029 13.0108 25.3669C13.6956 24.4751 14.7034 23.7384 15.7758 22.9629C17.8173 21.4765 19.9104 19.9514 19.7036 17.2372C19.5227 14.9366 18.0886 13.6959 16.564 12.3775C15.9696 11.8606 15.3624 11.3436 14.8068 10.7361C12.1452 7.82805 11.7059 6.49681 11.3312 2.74864C11.2795 2.21873 11.2408 1.68881 11.202 1.1589C10.9953 1.23645 10.8015 1.314 10.5947 1.39155C10.6335 1.86976 10.6722 2.34798 10.711 2.81327C11.0986 6.66483 11.5896 8.13825 14.3546 11.1626C14.936 11.7959 15.5562 12.3388 16.1634 12.8558C17.6493 14.1353 18.9284 15.2468 19.0835 17.2889C19.2643 19.6542 17.3909 21.0242 15.4011 22.4717C14.3417 23.2472 13.2563 24.0356 12.507 24.9921C10.6464 27.3961 10.6723 29.7613 10.6981 32.4884C10.6981 32.721 10.6981 32.9537 10.6981 33.1993C10.9048 33.2768 11.1115 33.3544 11.3183 33.4319C11.3183 33.1088 11.3183 32.7986 11.3183 32.4884L11.3312 32.4755Z" fill="#231F20"/>
<path d="M32.1202 22.9629C32.5983 22.6139 33.0763 22.265 33.5415 21.8901C33.6319 21.5412 33.7224 21.2051 33.7999 20.8562C33.1926 21.4119 32.482 21.9418 31.7585 22.4717C30.699 23.2472 29.6137 24.0356 28.8643 24.9921C27.3138 27.0083 27.0813 28.9858 27.0554 31.1701C27.2751 31.015 27.4818 30.8599 27.6885 30.6919C27.7402 28.8049 28.0374 27.0859 29.3553 25.3669C30.04 24.4751 31.0478 23.7384 32.1202 22.9629Z" fill="#231F20"/>
<path d="M31.1899 24.9791C30.1692 26.3104 29.717 27.6158 29.5232 28.9858C29.8074 28.6756 30.0917 28.3654 30.3501 28.0423C30.5956 27.1376 30.9961 26.2458 31.6809 25.3669C31.9522 25.0179 32.2623 24.6948 32.6112 24.3846C32.7921 23.9839 32.96 23.5833 33.1151 23.1826C32.3915 23.7384 31.7067 24.32 31.1899 24.9921V24.9791Z" fill="#231F20"/>
<path d="M27.0165 25.3669C27.7013 24.4751 28.7091 23.7384 29.7815 22.9629C31.8229 21.4765 33.9161 19.9514 33.7093 17.2372C33.5284 14.9366 32.0943 13.6959 30.5697 12.3775C29.9753 11.8606 29.3681 11.3436 28.8125 10.7361C26.1509 7.82805 25.7116 6.49681 25.3369 2.74864C25.324 2.58062 25.311 2.42553 25.2981 2.2575C25.0785 2.14118 24.8717 2.02486 24.6521 1.92146C24.6779 2.21873 24.7038 2.516 24.7296 2.81327C25.1172 6.66483 25.6082 8.13825 28.3732 11.1626C28.9546 11.7959 29.5748 12.3388 30.1821 12.8558C31.6679 14.1353 32.947 15.2468 33.1021 17.2889C33.283 19.6542 31.4095 21.0242 29.4197 22.4717C28.3603 23.2472 27.275 24.0356 26.5256 24.9921C24.665 27.3961 24.6909 29.7613 24.7167 32.4884V32.5789C24.9234 32.4755 25.1302 32.3721 25.3369 32.2558C25.3111 29.7354 25.3369 27.5382 27.0165 25.3669Z" fill="#231F20"/>
<path d="M20.44 22.9629C22.4815 21.4765 24.5746 19.9514 24.3679 17.2372C24.187 14.9366 22.7528 13.6959 21.2282 12.3775C20.6338 11.8606 20.0266 11.3436 19.471 10.7361C16.8094 7.82805 16.3701 6.49681 15.9954 2.74864C15.905 1.89561 15.8533 1.04258 15.8145 0.176624C15.6078 0.189549 15.4011 0.202475 15.1943 0.228324C15.2331 1.09428 15.2977 1.96024 15.3752 2.81327C15.7628 6.66483 16.2538 8.13825 19.0188 11.1626C19.6002 11.7959 20.2204 12.3388 20.8276 12.8558C22.3135 14.1353 23.5926 15.2468 23.7477 17.2889C23.9286 19.6542 22.0551 21.0242 20.0653 22.4717C19.0059 23.2472 17.9205 24.0356 17.1712 24.9921C15.3106 27.3961 15.3365 29.7613 15.3623 32.4884C15.3623 32.8115 15.3623 33.1346 15.3623 33.4707V34.3237C15.569 34.3496 15.7758 34.3625 15.9825 34.3754V33.4836C15.9825 33.1476 15.9825 32.8115 15.9825 32.4884C15.9566 29.8776 15.9308 27.6158 17.6621 25.3798C18.3469 24.488 19.3547 23.7513 20.4271 22.9758L20.44 22.9629Z" fill="#231F20"/>
<path d="M8.77294 22.9629C10.8144 21.4765 12.9075 19.9514 12.7007 17.2372C12.5199 14.9366 11.0857 13.6959 9.56108 12.3775C8.96674 11.8606 8.35948 11.3436 7.8039 10.7361C5.87876 8.62938 5.11645 7.34984 4.703 5.37236C4.53503 5.5533 4.35415 5.73425 4.1991 5.92812C4.66424 7.77635 5.49115 9.1076 7.35169 11.1626C7.93311 11.7959 8.55329 12.3388 9.16055 12.8558C10.6464 14.1353 11.9255 15.2468 12.0806 17.2889C12.2615 19.6542 10.388 21.0242 8.39824 22.4717C7.33877 23.2472 6.25345 24.0356 5.50407 24.9921C4.65132 26.1036 4.1991 27.2022 3.95361 28.3396C4.12158 28.5464 4.30246 28.7402 4.48335 28.9341C4.67716 27.7063 5.10353 26.543 5.99504 25.3798C6.67982 24.488 7.68762 23.7513 8.76002 22.9758L8.77294 22.9629Z" fill="#231F20"/>
<path d="M23.0113 33.3285C23.0113 33.0442 23.0113 32.7598 23.0113 32.4755C22.9855 29.8647 22.9597 27.6029 24.691 25.3669C25.3758 24.4751 26.3836 23.7384 27.456 22.9629C29.4974 21.4765 31.5905 19.9514 31.3838 17.2372C31.2029 14.9366 29.7687 13.6959 28.2441 12.3775C27.6498 11.8606 27.0425 11.3436 26.4869 10.7361C23.8253 7.82805 23.386 6.49681 23.0113 2.74864C22.9597 2.21873 22.9209 1.68881 22.8821 1.1589C22.6754 1.08135 22.4687 1.01673 22.249 0.939182C22.2878 1.57249 22.3395 2.19288 22.3911 2.81327C22.7788 6.66483 23.2697 8.13825 26.0347 11.1626C26.6161 11.7959 27.2363 12.3388 27.8436 12.8558C29.3294 14.1353 30.6086 15.2468 30.7636 17.2889C30.9445 19.6542 29.071 21.0242 27.0813 22.4718C26.0218 23.2472 24.9365 24.0356 24.1871 24.9921C22.3265 27.3961 22.3524 29.7613 22.3782 32.4884C22.3782 32.8115 22.3782 33.1346 22.3782 33.4707V33.5482C22.585 33.4836 22.7917 33.4061 22.9984 33.3285H23.0113Z" fill="#231F20"/>
<path d="M20.6726 34.0006V33.4578C20.6726 33.1217 20.6726 32.7857 20.6726 32.4626C20.6468 29.8518 20.621 27.5899 22.3523 25.354C23.0371 24.4622 24.0449 23.7254 25.1173 22.95C27.1587 21.4636 29.2518 19.9385 29.0451 17.2243C28.8642 14.9237 27.43 13.6829 25.9054 12.3646C25.3111 11.8476 24.7038 11.3307 24.1482 10.7232C21.4866 7.81513 21.0473 6.48388 20.6726 2.73572C20.5951 1.98608 20.5434 1.23645 20.5047 0.473893C20.298 0.435119 20.0912 0.396345 19.8716 0.357571C19.9103 1.17183 19.9749 1.98608 20.0525 2.80034C20.4401 6.6519 20.9311 8.12532 23.696 11.1497C24.2775 11.783 24.8976 12.3259 25.5049 12.8428C26.9907 14.1224 28.2699 15.2339 28.4249 17.276C28.6058 19.6412 26.7323 21.0113 24.7426 22.4588C23.6831 23.2343 22.5978 24.0227 21.8484 24.9791C19.9879 27.3831 20.0137 29.7484 20.0395 32.4755C20.0395 32.7986 20.0395 33.1217 20.0395 33.4578V34.1169C20.2463 34.0781 20.453 34.0394 20.6597 34.0006H20.6726Z" fill="#231F20"/>
<path d="M32.5077 12.8428C32.9987 13.2694 33.4638 13.67 33.8773 14.0965C33.8127 13.7346 33.7352 13.3728 33.6447 13.0109C33.4121 12.7911 33.1667 12.5843 32.9212 12.3776C32.3268 11.8606 31.7196 11.3436 31.164 10.7361C28.8125 8.16409 28.1923 6.81993 27.8176 3.93772C27.5979 3.75677 27.3654 3.57582 27.1328 3.4078C27.5204 6.807 28.1018 8.29335 30.7118 11.1497C31.2932 11.783 31.9134 12.3259 32.5206 12.8428H32.5077Z" fill="#231F20"/>
<path d="M33.0376 11.1497H33.0505C32.7662 10.4388 32.4432 9.71506 32.0686 9.04298C31.6551 8.48721 31.3321 7.97023 31.0737 7.45324C30.699 6.92332 30.2984 6.41926 29.8721 5.92812C30.3372 7.77636 31.1641 9.1076 33.0247 11.1626L33.0376 11.1497Z" fill="#231F20"/>
<path d="M13.6698 34.0652V33.4707C13.6698 33.1346 13.6698 32.7986 13.6698 32.4755C13.6439 29.8647 13.6181 27.6029 15.3494 25.3669C16.0342 24.4751 17.042 23.7384 18.1144 22.9629C20.1558 21.4765 22.2489 19.9514 22.0422 17.2372C21.8613 14.9366 20.4271 13.6959 18.9025 12.3775C18.3082 11.8606 17.7009 11.3436 17.1454 10.7361C14.4837 7.82805 14.0445 6.49681 13.6698 2.74864C13.5922 2.01194 13.5406 1.24938 13.5018 0.499743C13.2951 0.538517 13.0883 0.590216 12.8945 0.641915C12.9333 1.3657 12.985 2.08948 13.0625 2.81327C13.4501 6.66483 13.9411 8.13825 16.7061 11.1626C17.2875 11.7959 17.9077 12.3388 18.5149 12.8558C20.0008 14.1353 21.2799 15.2468 21.4349 17.2889C21.6158 19.6542 19.7424 21.0242 17.7526 22.4717C16.6931 23.2472 15.6078 24.0356 14.8584 24.9921C12.9979 27.3961 13.0237 29.7613 13.0496 32.4884C13.0496 32.8115 13.0496 33.1346 13.0496 33.4707V33.936C13.2563 33.9877 13.463 34.0394 13.6698 34.0781V34.0652Z" fill="#231F20"/>
<path d="M3.35936 17.2372C3.19139 15.0917 1.93811 13.8639 0.529779 12.649C0.465176 12.8687 0.413498 13.1013 0.361816 13.3211C1.60218 14.4197 2.60997 15.4924 2.73918 17.2889C2.8813 19.0984 1.8089 20.3262 0.413494 21.4507C0.465176 21.6704 0.529782 21.8901 0.594385 22.0969C2.1836 20.8562 3.52732 19.4344 3.35936 17.2502V17.2372Z" fill="#231F20"/>
<path d="M4.0959 22.9629C6.13733 21.4765 8.23044 19.9514 8.02372 17.2372C7.84283 14.9366 6.40866 13.6959 4.88405 12.3775C4.28971 11.8606 3.68245 11.3436 3.12687 10.7361C2.63589 10.2062 2.22244 9.71506 1.87358 9.26269C1.77022 9.45656 1.66686 9.66336 1.5635 9.87016C1.88651 10.2708 2.24828 10.6973 2.66173 11.1497C3.24315 11.783 3.86333 12.3259 4.47059 12.8428C5.95644 14.1224 7.23557 15.2339 7.39061 17.276C7.5715 19.6412 5.69804 21.0113 3.70829 22.4588C2.90722 23.0404 2.08031 23.6479 1.40845 24.32C1.49889 24.5268 1.58933 24.7206 1.6927 24.9145C2.35164 24.2166 3.19147 23.5962 4.07006 22.95L4.0959 22.9629Z" fill="#231F20"/>
<path d="M18.334 34.3496V33.4707C18.334 33.1346 18.334 32.7986 18.334 32.4755C18.3082 29.8647 18.2823 27.6029 20.0137 25.3669C20.6985 24.4751 21.7063 23.7384 22.7787 22.9629C24.8201 21.4765 26.9132 19.9514 26.7065 17.2372C26.5256 14.9366 25.0914 13.6959 23.5668 12.3775C22.9725 11.8606 22.3652 11.3436 21.8096 10.7361C19.148 7.82805 18.7087 6.49681 18.334 2.74864C18.2436 1.89561 18.1919 1.04258 18.1531 0.176624C17.9464 0.163699 17.7397 0.150774 17.533 0.150774C17.5717 1.04258 17.6363 1.93439 17.7268 2.81327C18.1144 6.66483 18.6054 8.13825 21.3703 11.1626C21.9518 11.7959 22.5719 12.3388 23.1792 12.8558C24.665 14.1353 25.9442 15.2468 26.0992 17.2889C26.2801 19.6542 24.4066 21.0242 22.4169 22.4718C21.3574 23.2472 20.2721 24.0356 19.5227 24.9921C17.6622 27.3961 17.688 29.7613 17.7138 32.4884C17.7138 32.8115 17.7138 33.1346 17.7138 33.4707V34.3883C17.9206 34.3883 18.1273 34.3625 18.334 34.3496Z" fill="#231F20"/>
<path d="M0.167967 20.2228C0.762307 19.3957 1.12408 18.4263 1.03363 17.2372C0.956111 16.1903 0.607261 15.3502 0.116284 14.6394C0.0646024 14.9754 0.0258409 15.3115 0 15.6604C0.232568 16.1386 0.374695 16.6686 0.426377 17.2889C0.478059 18.0386 0.335935 18.6848 0.0387647 19.2664C0.077526 19.5895 0.129204 19.9127 0.180885 20.2228H0.167967Z" fill="#231F20"/>
</svg>
