<svg width="1250" height="720" viewBox="0 0 1250 720" fill="none" xmlns="http://www.w3.org/2000/svg">
<path d="M-36.1594 -764C-37.9321 -597.377 -59.9731 -426.315 -47.6427 -259.99C-39.1087 -144.714 -0.815406 -36.0584 0.0787827 80.2372C1.08278 210.95 -33.1788 338.023 -36.2065 468.548C-39.4852 609.49 -36.1594 750.933 -36.1594 891.906" stroke="white" stroke-miterlimit="10"/>
<path d="M22.2611 -764C17.5078 -589.815 -24.5034 -397.15 2.51054 -224.221C20.0806 -111.769 89.5449 -19.633 91.8196 96.3646C94.3296 224.128 30.8422 341.898 23.2965 469.034C14.9821 609.129 22.2611 751.639 22.2611 891.89" stroke="white" stroke-miterlimit="10"/>
<path d="M80.6815 -764C72.6809 -585.266 7.13839 -358.981 51.942 -183.73C80.2423 -73.0508 183.764 -4.22734 187.843 114.735C192.079 238.655 98.2516 347.483 83.1131 469.693C66.1235 606.917 80.6815 754.055 80.6815 891.906" stroke="white" stroke-miterlimit="10"/>
<path d="M139.102 -764C128.277 -583.838 39.8939 -316.765 101.405 -143.475C140.247 -34.0347 277.717 8.8722 283.662 132.98C289.467 254.28 163.825 352.017 142.914 470.321C119.257 604.124 139.102 756.832 139.102 891.906" stroke="white" stroke-miterlimit="10"/>
<path d="M197.522 -764C186.902 -615.105 167.041 -468.5 151.73 -320.059C145.361 -258.233 125.234 -168.936 151.667 -108.365C198.965 0.0554696 367.402 19.1636 374.822 148.81C381.694 268.682 228.081 355.312 202.385 470.807C173.442 600.987 197.506 759.781 197.506 891.906" stroke="white" stroke-miterlimit="10"/>
<path d="M255.942 -764C243.879 -608.123 221.336 -454.977 204.017 -299.633C197.161 -238.183 174.242 -143.318 203.483 -83.3109C256.303 25.0465 448.617 25.0309 456.868 159.885C464.226 280.15 290.079 356.253 261.213 470.995C229.164 598.461 255.942 762.025 255.942 891.906" stroke="white" stroke-miterlimit="10"/>
<path d="M314.363 -764C302.158 -604.939 277.921 -449.141 259.723 -290.707C252.852 -230.81 228.285 -131.865 257.684 -73.3019C313.014 36.9381 516.936 24.0582 525.297 163.839C532.655 286.817 348.97 354.025 319.101 470.76C286.659 597.457 314.379 762.746 314.363 891.906" stroke="white" stroke-miterlimit="10"/>
<path d="M372.783 -764C360.845 -607.778 335.321 -455.871 316.528 -300.418C309.296 -240.615 285.074 -142.078 314.457 -83.5932C369.708 26.38 572.533 13.9865 581.427 153.171C589.334 276.871 403.813 350.652 374.07 468.36C341.738 596.359 372.877 761.491 372.783 891.921" stroke="white" stroke-miterlimit="10"/>
<path d="M431.203 -764C418.748 -614.32 391.498 -470.194 371.434 -321.471C363.512 -262.719 339.855 -167.634 368.422 -109.996C423.422 0.996787 623.752 -12.6518 633.918 126.941C643.205 254.328 453.26 339.184 424.285 461.143C393.114 592.405 429.776 758.557 431.203 891.875" stroke="white" stroke-miterlimit="10"/>
<path d="M489.624 -764C476.117 -623.231 446.844 -489.6 425.07 -350.055C416.159 -292.982 393.271 -203.403 420.505 -147.083C474.987 -34.3798 672.164 -50.1149 683.977 90.4187C695.554 228.128 495.067 316.813 471.316 450.805C446.577 590.319 485.42 751.357 489.639 891.906" stroke="white" stroke-miterlimit="10"/>
<path d="M548.044 -764C530.663 -610.21 403.123 -335.873 471.646 -189.535C525.313 -74.9334 719.305 -92.8491 732.812 48.7042C746.617 193.411 538.946 297.125 516.732 438.851C494.111 583.212 540.467 747.058 548.044 891.906" stroke="white" stroke-miterlimit="10"/>
<path d="M606.449 -764C587.357 -619.78 459.723 -371.297 522.787 -232.002C575.403 -115.754 766.634 -135.395 781.647 6.98959C797.664 158.991 582.792 277.185 562.163 426.896C541.612 576.09 595.468 742.775 606.449 891.906" stroke="white" stroke-miterlimit="10"/>
<path d="M664.869 -764C644.366 -627.89 516.261 -402.516 574.87 -269.089C626.435 -151.726 815.517 -172.325 831.69 -29.5479C849.653 128.98 628.443 259.74 609.178 416.542C590.338 569.971 650.954 739.026 664.869 891.906" stroke="white" stroke-miterlimit="10"/>
<path d="M723.29 -764C702.049 -633.303 572.909 -425.075 628.819 -295.476C679.647 -177.69 867.191 -198.414 884.181 -55.7469C903.586 107.33 677.749 247.597 659.379 409.357C641.605 565.814 707.586 736.265 723.29 891.906" stroke="white" stroke-miterlimit="10"/>
<path d="M781.71 -764C760.814 -634.903 630.012 -434.363 685.593 -305.783C736.326 -188.389 922.961 -208.407 940.311 -66.4462C960.407 98.0117 732.608 243.628 714.364 406.925C696.746 564.637 765.975 734.963 781.71 891.89" stroke="white" stroke-miterlimit="10"/>
<path d="M840.13 -764C818.827 -633.491 695.993 -436.731 749.739 -306.677C797.586 -190.9 974.949 -194.743 990.825 -57.3942C1009.46 103.801 794.825 249.119 776.486 409.2C758.54 565.845 824.364 735.967 840.13 891.89" stroke="white" stroke-miterlimit="10"/>
<path d="M898.551 -764C878.784 -629.145 770.603 -440.246 819.125 -305.673C860.744 -190.256 1019.49 -167.477 1031.42 -35.1956C1045.65 122.579 859.536 259.661 842.546 416.15C825.745 570.897 884.432 737.708 898.551 891.89" stroke="white" stroke-miterlimit="10"/>
<path d="M956.971 -764C940.342 -622.572 851.943 -444.795 891.977 -303.367C924.984 -186.789 1058.25 -132.085 1065.37 -4.1803C1073.86 148.025 925.502 275.365 911.195 426.269C896.762 578.584 945.629 739.951 956.971 891.906" stroke="white" stroke-miterlimit="10"/>
<path d="M1015.39 -764C1003.17 -615.622 937.581 -448.937 966.603 -300.402C990.025 -180.577 1092.97 -94.7318 1095.95 31.3218C1099.34 174.664 991.735 295.681 981.193 438.003C970.101 587.589 1007.44 742.524 1015.39 891.906" stroke="white" stroke-miterlimit="10"/>
<path d="M1073.81 -764C1066.63 -610.79 1023.13 -450.741 1041.29 -297.406C1056.15 -172.043 1126 -61.0024 1126.36 67.0122C1126.74 199.482 1057.62 317.911 1051.22 449.801C1044.1 596.5 1069.26 745.301 1073.8 891.906" stroke="white" stroke-miterlimit="10"/>
<path d="M1132.23 -764C1129.55 -608.061 1106.21 -451.008 1114.38 -295.021C1121.31 -162.583 1160.47 -34.5837 1159.91 98.5922C1159.39 220.928 1123.86 338.039 1120.06 460.124C1115.59 603.779 1130.57 748.25 1132.23 891.906" stroke="white" stroke-miterlimit="10"/>
<path d="M1190.65 -764C1191.03 -211.498 1190.92 339.435 1190.65 891.906" stroke="white" stroke-miterlimit="10"/>
<path d="M1249.07 -764C1249.5 -212.031 1249.36 339.937 1249.07 891.906" stroke="white" stroke-miterlimit="10"/>
</svg>
